<svg width="54" height="40" viewBox="0 0 54 40" fill="none" xmlns="http://www.w3.org/2000/svg">
<g id="&#240;&#159;&#166;&#134; icon &#34;Credit Card&#34;">
<path id="Vector" d="M48.7627 0H4.61447C2.1669 0 0.188599 1.91964 0.188599 4.28571V35.7143C0.188599 38.0804 2.1669 40 4.61447 40H48.7627C51.2103 40 53.1886 38.0804 53.1886 35.7143V4.28571C53.1886 1.91964 51.2103 0 48.7627 0ZM5.16655 4.28571H48.2106C48.5143 4.28571 48.7627 4.52679 48.7627 4.82143V8.57143H4.61447V4.82143C4.61447 4.52679 4.8629 4.28571 5.16655 4.28571ZM48.2106 35.7143H5.16655C4.8629 35.7143 4.61447 35.4732 4.61447 35.1786V20H48.7627V35.1786C48.7627 35.4732 48.5143 35.7143 48.2106 35.7143ZM17.8553 26.7857V30.3571C17.8553 30.9464 17.3584 31.4286 16.7511 31.4286H10.1261C9.51881 31.4286 9.02193 30.9464 9.02193 30.3571V26.7857C9.02193 26.1964 9.51881 25.7143 10.1261 25.7143H16.7511C17.3584 25.7143 17.8553 26.1964 17.8553 26.7857ZM35.5219 26.7857V30.3571C35.5219 30.9464 35.0251 31.4286 34.4178 31.4286H21.9039C21.2966 31.4286 20.7997 30.9464 20.7997 30.3571V26.7857C20.7997 26.1964 21.2966 25.7143 21.9039 25.7143H34.4178C35.0251 25.7143 35.5219 26.1964 35.5219 26.7857Z" fill="black"/>
</g>
</svg>
