<svg width="51" height="47" viewBox="0 0 51 47" fill="none" xmlns="http://www.w3.org/2000/svg">
<g id="&#240;&#159;&#166;&#134; icon &#34;shopping-cart&#34;">
<path id="Vector" d="M46.4813 27.8187L50.6419 9.17018C50.9423 7.82372 49.9376 6.54155 48.5821 6.54155H14.0123L13.2056 2.52405C13.0046 1.52268 12.1396 0.803551 11.1362 0.803551H2.1123C0.945696 0.803551 0 1.76691 0 2.9553V4.3898C0 5.57819 0.945696 6.54155 2.1123 6.54155H8.2629L14.4456 37.3326C12.9665 38.1992 11.9697 39.8239 11.9697 41.6868C11.9697 44.4597 14.1764 46.7075 16.8984 46.7075C19.6205 46.7075 21.8271 44.4597 21.8271 41.6868C21.8271 40.2815 21.2597 39.0119 20.3464 38.1005H38.798C37.8848 39.0119 37.3174 40.2815 37.3174 41.6868C37.3174 44.4597 39.524 46.7075 42.2461 46.7075C44.9682 46.7075 47.1748 44.4597 47.1748 41.6868C47.1748 39.6989 46.0405 37.9811 44.3955 37.1677L44.881 34.9912C45.1814 33.6447 44.1767 32.3625 42.8213 32.3625H19.1971L18.621 29.4935H44.4215C45.4078 29.4935 46.2627 28.7984 46.4813 27.8187Z" fill="black"/>
</g>
</svg>
