<svg width="46" height="47" viewBox="0 0 46 47" fill="none" xmlns="http://www.w3.org/2000/svg">
<g id="&#240;&#159;&#166;&#134; icon &#34;User&#34;">
<path id="Vector" d="M23.2783 23.7555C30.3897 23.7555 36.1533 18.6182 36.1533 12.2795C36.1533 5.94085 30.3897 0.803551 23.2783 0.803551C16.1669 0.803551 10.4033 5.94085 10.4033 12.2795C10.4033 18.6182 16.1669 23.7555 23.2783 23.7555ZM32.2908 26.6245H30.611C28.378 27.539 25.8936 28.059 23.2783 28.059C20.6631 28.059 18.1887 27.539 15.9456 26.6245H14.2658C6.80234 26.6245 0.74707 32.0219 0.74707 38.6743V42.404C0.74707 44.7799 2.90967 46.7075 5.5752 46.7075H40.9814C43.647 46.7075 45.8096 44.7799 45.8096 42.404V38.6743C45.8096 32.0219 39.7543 26.6245 32.2908 26.6245Z" fill="black"/>
</g>
</svg>
