<svg width="44" height="40" viewBox="0 0 44 40" fill="none" xmlns="http://www.w3.org/2000/svg">
<g id="&#240;&#159;&#166;&#134; icon &#34;Paypal Credit Card&#34;">
<path id="Vector" d="M14.2313 20.1964C14.2313 21.2857 13.4903 22.1161 12.5507 22.1161C11.8479 22.1161 11.3285 21.6518 11.3285 20.7768C11.3285 19.6875 12.0542 18.8125 12.9861 18.8125C13.6965 18.8125 14.2313 19.3214 14.2313 20.1964ZM6.14931 15.8661H5.79028C5.67569 15.8661 5.56111 15.9554 5.54583 16.1071L5.21736 18.4911L5.84375 18.4643C6.68403 18.4643 7.33333 18.3304 7.48611 17.1964C7.66181 16 7.0125 15.8661 6.14931 15.8661ZM27.8437 15.8661H27.5C27.3625 15.8661 27.2708 15.9554 27.2556 16.1071L26.9347 18.4911L27.5458 18.4643C28.5389 18.4643 29.2264 18.1964 29.2264 16.8571C29.2188 15.9107 28.4931 15.8661 27.8437 15.8661ZM44 4.28571V35.7143C44 38.0804 42.3576 40 40.3333 40H3.66667C1.64236 40 0 38.0804 0 35.7143V4.28571C0 1.91964 1.64236 0 3.66667 0H40.3333C42.3576 0 44 1.91964 44 4.28571ZM9.80069 16.375C9.80069 14.5 8.56319 13.875 7.15 13.875H4.09444C3.90347 13.875 3.7125 14.0536 3.69722 14.2946L2.44444 23.4107C2.42153 23.5893 2.53611 23.7679 2.68889 23.7679H4.14028C4.34653 23.7679 4.5375 23.5089 4.56042 23.2589L4.90417 20.8839C4.98056 20.2411 5.9125 20.4643 6.27917 20.4643C8.46389 20.4643 9.80069 18.9464 9.80069 16.375ZM16.2326 17.1607H14.7812C14.491 17.1607 14.4757 17.6518 14.4604 17.8929C14.0174 17.1339 13.3757 17 12.65 17C10.7785 17 9.35 18.9196 9.35 21.0357C9.35 22.7768 10.2819 23.9107 11.7715 23.9107C12.459 23.9107 13.3146 23.4732 13.7958 22.8482C13.7576 22.9821 13.7194 23.2679 13.7194 23.4018C13.7194 23.6071 13.7958 23.7589 13.9639 23.7589H15.2778C15.484 23.7589 15.6597 23.5 15.6979 23.25L16.4771 17.5089C16.5 17.3393 16.3854 17.1607 16.2326 17.1607ZM19.3264 25.9018L24.1924 17.6339C24.2306 17.5893 24.2306 17.5446 24.2306 17.4821C24.2306 17.3304 24.116 17.1696 23.9861 17.1696H22.5194C22.3896 17.1696 22.2521 17.2589 22.1757 17.3929L20.1514 20.875L19.3111 17.5268C19.25 17.3304 19.0819 17.1696 18.891 17.1696H17.4625C17.3326 17.1696 17.2181 17.3304 17.2181 17.4821C17.2181 17.5893 18.7076 22.5536 18.8375 23.0268C18.6313 23.3661 17.2715 25.5804 17.2715 25.8482C17.2715 26.0089 17.3861 26.1339 17.516 26.1339H18.9826C19.1201 26.125 19.25 26.0357 19.3264 25.9018ZM31.4951 16.375C31.4951 14.5 30.2576 13.875 28.8444 13.875H25.8118C25.6056 13.875 25.4146 14.0536 25.3917 14.2946L24.1542 23.4018C24.1389 23.5804 24.2535 23.7589 24.3986 23.7589H25.9646C26.1174 23.7589 26.2319 23.625 26.2701 23.4732L26.6139 20.8839C26.6903 20.2411 27.6222 20.4643 27.9889 20.4643C30.1583 20.4643 31.4951 18.9464 31.4951 16.375ZM37.9271 17.1607H36.4757C36.1854 17.1607 36.1701 17.6518 36.1472 17.8929C35.7271 17.1339 35.0778 17 34.3368 17C32.4653 17 31.0368 18.9196 31.0368 21.0357C31.0368 22.7768 31.9687 23.9107 33.4583 23.9107C34.1687 23.9107 35.0243 23.4732 35.4826 22.8482C35.4597 22.9821 35.4062 23.2679 35.4062 23.4018C35.4062 23.6071 35.4826 23.7589 35.6507 23.7589H36.9722C37.1785 23.7589 37.3542 23.5 37.3924 23.25L38.1715 17.5089C38.1944 17.3393 38.0799 17.1607 37.9271 17.1607ZM41.5556 14.1875C41.5556 14.0089 41.441 13.875 41.3111 13.875H39.8979C39.7833 13.875 39.6687 13.9821 39.6535 14.1161L38.416 23.4018L38.3931 23.4464C38.3931 23.6071 38.5076 23.7589 38.6604 23.7589H39.9208C40.1118 23.7589 40.3028 23.5 40.3181 23.25L41.5556 14.2143V14.1875ZM34.6806 18.8125C33.7486 18.8125 33.0229 19.6786 33.0229 20.7768C33.0229 21.6429 33.5576 22.1161 34.2604 22.1161C35.1771 22.1161 35.9181 21.2946 35.9181 20.1964C35.9257 19.3214 35.391 18.8125 34.6806 18.8125Z" fill="black"/>
</g>
</svg>
