<svg width="54" height="40" viewBox="0 0 54 40" fill="none" xmlns="http://www.w3.org/2000/svg">
<g id="&#240;&#159;&#166;&#134; icon &#34;Visa Credit Card&#34;">
<path id="Vector" d="M43.8995 17.7946C43.8995 17.7946 44.6063 21.1161 44.7644 21.8125H41.6583C41.9652 21.0179 43.1463 17.9286 43.1463 17.9286C43.1277 17.9554 43.4531 17.1161 43.6391 16.5982L43.8995 17.7946ZM53.7477 4.28571V35.7143C53.7477 38.0804 51.7483 40 49.284 40H4.64615C2.18177 40 0.182373 38.0804 0.182373 35.7143V4.28571C0.182373 1.91964 2.18177 0 4.64615 0H49.284C51.7483 0 53.7477 1.91964 53.7477 4.28571ZM14.3642 26.7143L20.2415 12.8571H16.2892L12.6345 22.3214L12.2346 20.4018L10.9326 14.0268C10.7188 13.1429 10.0585 12.8929 9.24013 12.8571H3.22332L3.15823 13.1339C4.62755 13.4911 5.93879 14.0089 7.08263 14.6607L10.4119 26.7143H14.3642ZM23.1429 26.7321L25.4864 12.8571H21.748L19.4138 26.7321H23.1429ZM36.153 22.1964C36.1716 20.6161 35.1673 19.4107 33.0191 18.4196C31.7078 17.7857 30.9081 17.3571 30.9081 16.7054C30.9267 16.1161 31.5869 15.5089 33.0563 15.5089C34.2745 15.4821 35.1673 15.7589 35.8368 16.0357L36.1716 16.1875L36.6831 13.1875C35.9484 12.9107 34.7767 12.5982 33.3352 12.5982C29.6433 12.5982 27.0488 14.4911 27.0302 17.1875C27.0023 19.1786 28.8901 20.2857 30.3036 20.9554C31.745 21.6339 32.2379 22.0804 32.2379 22.6786C32.2193 23.6071 31.0662 24.0357 29.9967 24.0357C28.5088 24.0357 27.709 23.8125 26.4908 23.2946L25.9979 23.0714L25.4771 26.1875C26.3513 26.5714 27.9694 26.9107 29.6433 26.9286C33.5677 26.9375 36.1251 25.0714 36.153 22.1964ZM49.284 26.7321L46.2709 12.8571H43.3788C42.486 12.8571 41.8071 13.1071 41.4258 14.0089L35.874 26.7321H39.7984C39.7984 26.7321 40.4401 25.0179 40.5796 24.6518H45.3782C45.4897 25.1429 45.8245 26.7321 45.8245 26.7321H49.284Z" fill="black"/>
</g>
</svg>
