<svg width="41" height="39" viewBox="0 0 41 39" fill="none" xmlns="http://www.w3.org/2000/svg">
<g id="&#240;&#159;&#166;&#134; icon &#34;Instagram&#34;">
<path id="Vector" d="M20.4466 9.37525C14.7581 9.37525 10.1697 13.7806 10.1697 19.2421C10.1697 24.7037 14.7581 29.109 20.4466 29.109C26.135 29.109 30.7234 24.7037 30.7234 19.2421C30.7234 13.7806 26.135 9.37525 20.4466 9.37525ZM20.4466 25.6569C16.7705 25.6569 13.7653 22.7801 13.7653 19.2421C13.7653 15.7041 16.7616 12.8274 20.4466 12.8274C24.1315 12.8274 27.1278 15.7041 27.1278 19.2421C27.1278 22.7801 24.1226 25.6569 20.4466 25.6569ZM33.5408 8.97164C33.5408 10.2512 32.4675 11.2731 31.1438 11.2731C29.8111 11.2731 28.7467 10.2426 28.7467 8.97164C28.7467 7.70071 29.82 6.67023 31.1438 6.67023C32.4675 6.67023 33.5408 7.70071 33.5408 8.97164ZM40.3473 11.3074C40.1952 8.22454 39.4618 5.49376 37.1095 3.24387C34.7661 0.993986 31.9219 0.289823 28.7109 0.135251C25.4016 -0.0450836 15.4825 -0.0450836 12.1732 0.135251C8.9712 0.281236 6.12696 0.985399 3.77465 3.23529C1.42234 5.48518 0.697861 8.21595 0.536866 11.2988C0.349039 14.4761 0.349039 23.9995 0.536866 27.1768C0.688917 30.2597 1.42234 32.9905 3.77465 35.2404C6.12696 37.4903 8.96226 38.1944 12.1732 38.349C15.4825 38.5293 25.4016 38.5293 28.7109 38.349C31.9219 38.203 34.7661 37.4988 37.1095 35.2404C39.4529 32.9905 40.1863 30.2597 40.3473 27.1768C40.5351 23.9995 40.5351 14.4847 40.3473 11.3074ZM36.072 30.586C35.3743 32.2691 34.0238 33.5658 32.2618 34.2442C29.6233 35.249 23.3623 35.0171 20.4466 35.0171C17.5308 35.0171 11.2609 35.2404 8.63132 34.2442C6.87827 33.5744 5.5277 32.2777 4.82112 30.586C3.77465 28.0528 4.01614 22.0416 4.01614 19.2421C4.01614 16.4426 3.78359 10.4229 4.82112 7.89822C5.51876 6.2151 6.86933 4.91841 8.63132 4.24001C11.2698 3.23529 17.5308 3.46715 20.4466 3.46715C23.3623 3.46715 29.6322 3.24387 32.2618 4.24001C34.0148 4.90982 35.3654 6.20651 36.072 7.89822C37.1185 10.4315 36.877 16.4426 36.877 19.2421C36.877 22.0416 37.1185 28.0613 36.072 30.586Z" fill="black"/>
</g>
</svg>
