<svg width="46" height="46" viewBox="0 0 46 46" fill="none" xmlns="http://www.w3.org/2000/svg">
<g id="&#240;&#159;&#166;&#134; icon &#34;Search&#34;">
<path id="Vector" d="M44.4497 39.6869L35.6742 30.7491C35.2781 30.3457 34.7411 30.1216 34.1778 30.1216H32.7431C35.1724 26.957 36.616 22.9767 36.616 18.6467C36.616 8.34618 28.4214 0 18.308 0C8.19458 0 0 8.34618 0 18.6467C0 28.9472 8.19458 37.2934 18.308 37.2934C22.5593 37.2934 26.4674 35.8231 29.5744 33.3489V34.8101C29.5744 35.3839 29.7945 35.9307 30.1906 36.3341L38.9661 45.272C39.7934 46.1147 41.1313 46.1147 41.9499 45.272L44.4409 42.735C45.2682 41.8923 45.2682 40.5296 44.4497 39.6869ZM18.308 30.1216C12.085 30.1216 7.04153 24.9937 7.04153 18.6467C7.04153 12.3086 12.0762 7.1718 18.308 7.1718C24.5309 7.1718 29.5744 12.2996 29.5744 18.6467C29.5744 24.9848 24.5397 30.1216 18.308 30.1216Z" fill="black"/>
</g>
</svg>
