<svg width="41" height="40" viewBox="0 0 41 40" fill="none" xmlns="http://www.w3.org/2000/svg">
<g id="&#240;&#159;&#166;&#134; icon &#34;Bitcoin&#34;">
<path id="Vector" d="M40.3842 20C40.3842 31.0457 31.4113 40 20.3426 40C9.27387 40 0.300964 31.0457 0.300964 20C0.300964 8.95427 9.27387 0 20.3426 0C31.4113 0 40.3842 8.95427 40.3842 20ZM28.9369 17.1508C29.3359 14.4896 27.3053 13.059 24.5286 12.1046L25.4293 8.4996L23.2302 7.95274L22.3533 11.4627C21.7751 11.319 21.1813 11.1834 20.5913 11.049L21.4745 7.51597L19.2766 6.96911L18.3753 10.5728C17.8967 10.464 17.4269 10.3565 16.971 10.2435L16.9735 10.2322L13.9406 9.47653L13.3556 11.8202C13.3556 11.8202 14.9873 12.1934 14.9528 12.2165C15.8436 12.4383 16.0045 13.0265 15.9775 13.4927L14.9515 17.5995C15.013 17.6152 15.0925 17.6377 15.1802 17.6727C15.1069 17.6545 15.0286 17.6345 14.9477 17.6152L13.5096 23.3682C13.4006 23.6382 13.1244 24.0432 12.5018 23.8895C12.5237 23.9214 10.9033 23.4914 10.9033 23.4914L9.81152 26.0032L12.6734 26.7151C13.2058 26.8482 13.7276 26.9876 14.2412 27.1188L13.3311 30.765L15.5277 31.3119L16.429 27.7044C17.0116 27.8619 17.5958 28.0132 18.1816 28.1581L17.2834 31.7487L19.4826 32.2956L20.3927 28.6562C24.1427 29.3644 26.9627 29.0787 28.1496 25.6944C29.1061 22.9694 28.102 21.3975 26.1289 20.3725C27.5658 20.042 28.6482 19.099 28.9369 17.1508ZM23.9122 24.1814C23.2326 26.9064 18.6345 25.4332 17.1438 25.0639L18.3514 20.2333C19.8421 20.6045 24.6225 21.3395 23.9122 24.1814ZM24.5924 17.1115C23.9724 19.5902 20.1452 18.3308 18.9038 18.0221L19.9986 13.6409C21.2402 13.9496 25.2382 14.5258 24.5924 17.1115Z" fill="black"/>
</g>
</svg>
