<svg width="48" height="40" viewBox="0 0 48 40" fill="none" xmlns="http://www.w3.org/2000/svg">
<g id="&#240;&#159;&#166;&#134; icon &#34;MasterCard Credit Card&#34;">
<path id="Vector" d="M40.2417 33.6875C40.2417 34.2946 39.8583 34.7321 39.3083 34.7321C38.7417 34.7321 38.375 34.2679 38.375 33.6875C38.375 33.1071 38.7417 32.6429 39.3083 32.6429C39.8583 32.6429 40.2417 33.1071 40.2417 33.6875ZM14.3417 32.6429C13.75 32.6429 13.4083 33.1071 13.4083 33.6875C13.4083 34.2679 13.75 34.7321 14.3417 34.7321C14.8833 34.7321 15.25 34.2946 15.25 33.6875C15.2417 33.1071 14.8833 32.6429 14.3417 32.6429ZM24.1333 32.6161C23.6833 32.6161 23.4083 32.9286 23.3417 33.3929H24.9333C24.8583 32.8839 24.5667 32.6161 24.1333 32.6161ZM33.1167 32.6429C32.55 32.6429 32.2083 33.1071 32.2083 33.6875C32.2083 34.2679 32.55 34.7321 33.1167 34.7321C33.6833 34.7321 34.05 34.2946 34.05 33.6875C34.05 33.1071 33.6833 32.6429 33.1167 32.6429ZM41.9417 34.9732C41.9417 35 41.9667 35.0179 41.9667 35.0714C41.9667 35.0982 41.9417 35.1161 41.9417 35.1696C41.9167 35.1964 41.9167 35.2143 41.9 35.2411C41.875 35.2679 41.8583 35.2857 41.8083 35.2857C41.7833 35.3125 41.7667 35.3125 41.7167 35.3125C41.6917 35.3125 41.675 35.3125 41.625 35.2857C41.6 35.2857 41.5833 35.2589 41.5583 35.2411C41.5333 35.2143 41.5167 35.1964 41.5167 35.1696C41.4917 35.125 41.4917 35.0982 41.4917 35.0714C41.4917 35.0268 41.4917 35 41.5167 34.9732C41.5167 34.9286 41.5417 34.9018 41.5583 34.875C41.5833 34.8482 41.6 34.8482 41.625 34.8304C41.6667 34.8036 41.6917 34.8036 41.7167 34.8036C41.7583 34.8036 41.7833 34.8036 41.8083 34.8304C41.85 34.8571 41.875 34.8571 41.9 34.875C41.925 34.8929 41.9167 34.9286 41.9417 34.9732ZM41.7583 35.0982C41.8 35.0982 41.8 35.0714 41.825 35.0714C41.85 35.0446 41.85 35.0268 41.85 35C41.85 34.9732 41.85 34.9554 41.825 34.9286C41.8 34.9286 41.7833 34.9018 41.7333 34.9018H41.6V35.2143H41.6667V35.0893H41.6917L41.7833 35.2143H41.85L41.7583 35.0982ZM48 4.28571V35.7143C48 38.0804 46.2083 40 44 40H4C1.79167 40 0 38.0804 0 35.7143V4.28571C0 1.91964 1.79167 0 4 0H44C46.2083 0 48 1.91964 48 4.28571ZM5.33333 16.75C5.33333 23.5804 10.5083 29.1161 16.875 29.1161C19.1417 29.1161 21.3667 28.3839 23.25 27.0536C17.175 21.7589 17.2167 11.7679 23.25 6.47321C21.3667 5.13393 19.1417 4.41071 16.875 4.41071C10.5083 4.40179 5.33333 9.94643 5.33333 16.75ZM24 26.4643C29.875 21.5536 29.85 11.9821 24 7.04464C18.15 11.9821 18.125 21.5625 24 26.4643ZM12.1417 33.2768C12.1417 32.5 11.6667 31.9911 10.9167 31.9643C10.5333 31.9643 10.125 32.0893 9.85 32.5446C9.65 32.1786 9.30833 31.9643 8.83333 31.9643C8.51667 31.9643 8.2 32.0893 7.95 32.4464V32.0536H7.26667V35.3304H7.95C7.95 33.6429 7.74167 32.6339 8.7 32.6339C9.55 32.6339 9.38333 33.5446 9.38333 35.3304H10.0417C10.0417 33.6964 9.83333 32.6339 10.7917 32.6339C11.6417 32.6339 11.475 33.5268 11.475 35.3304H12.1583V33.2768H12.1417ZM15.8833 32.0536H15.225V32.4464C15 32.1518 14.6833 31.9643 14.25 31.9643C13.3917 31.9643 12.7333 32.6964 12.7333 33.6875C12.7333 34.6875 13.3917 35.4107 14.25 35.4107C14.6833 35.4107 15 35.2411 15.225 34.9286V35.3393H15.8833V32.0536ZM19.2583 34.3393C19.2583 33 17.35 33.6071 17.35 32.9821C17.35 32.4732 18.3417 32.5536 18.8917 32.8839L19.1667 32.3036C18.3833 31.7589 16.65 31.7679 16.65 33.0357C16.65 34.3125 18.5583 33.7768 18.5583 34.375C18.5583 34.9375 17.4333 34.8929 16.8333 34.4464L16.5417 35.0089C17.475 35.6875 19.2583 35.5446 19.2583 34.3393ZM22.2083 35.1696L22.025 34.5625C21.7083 34.75 21.0083 34.9554 21.0083 34.1964V32.7143H22.1V32.0536H21.0083V31.0536H20.325V32.0536H19.6917V32.7054H20.325V34.1964C20.325 35.7679 21.7667 35.4821 22.2083 35.1696ZM23.3167 33.9732H25.6083C25.6083 32.5268 24.9917 31.9554 24.1583 31.9554C23.275 31.9554 22.6417 32.6607 22.6417 33.6786C22.6417 35.5089 24.525 35.8125 25.4583 34.9464L25.1417 34.4107C24.4917 34.9821 23.5083 34.9286 23.3167 33.9732ZM28.2417 32.0536C27.8583 31.875 27.275 31.8929 26.975 32.4464V32.0536H26.2917V35.3304H26.975V33.4821C26.975 32.4464 27.7667 32.5804 28.0417 32.7321L28.2417 32.0536ZM29.125 33.6875C29.125 32.6696 30.0917 32.3393 30.85 32.9375L31.1667 32.3571C30.2 31.5446 28.4417 31.9911 28.4417 33.6964C28.4417 35.4643 30.3083 35.8214 31.1667 35.0357L30.85 34.4554C30.0833 35.0357 29.125 34.6875 29.125 33.6875ZM34.6833 32.0536H34V32.4464C33.3083 31.4643 31.5083 32.0179 31.5083 33.6875C31.5083 35.4018 33.375 35.8929 34 34.9286V35.3393H34.6833V32.0536ZM37.4917 32.0536C37.2917 31.9464 36.575 31.7946 36.225 32.4464V32.0536H35.5667V35.3304H36.225V33.4821C36.225 32.5 36.975 32.5625 37.2917 32.7321L37.4917 32.0536ZM40.85 30.7232H40.1917V32.4464C39.5083 31.4732 37.7 31.9911 37.7 33.6875C37.7 35.4196 39.575 35.8839 40.1917 34.9286V35.3393H40.85V30.7232ZM41.4833 24.0179V24.4286H41.55V24.0179H41.7083V23.9464H41.325V24.0179H41.4833ZM42.0333 35.0714C42.0333 35.0268 42.0333 34.9732 42.0083 34.9286C41.9833 34.9018 41.9667 34.8571 41.9417 34.8304C41.9167 34.8036 41.875 34.7857 41.85 34.7589C41.8083 34.7589 41.7583 34.7321 41.7167 34.7321C41.6917 34.7321 41.65 34.7589 41.6 34.7589C41.5583 34.7857 41.5333 34.8036 41.5083 34.8304C41.4667 34.8571 41.4417 34.9018 41.4417 34.9286C41.4167 34.9732 41.4167 35.0268 41.4167 35.0714C41.4167 35.0982 41.4167 35.1429 41.4417 35.1964C41.4417 35.2232 41.4667 35.2679 41.5083 35.2946C41.5333 35.3214 41.55 35.3393 41.6 35.3661C41.6417 35.3929 41.6917 35.3929 41.7167 35.3929C41.7583 35.3929 41.8083 35.3929 41.85 35.3661C41.875 35.3393 41.9167 35.3214 41.9417 35.2946C41.9667 35.2679 41.9833 35.2232 42.0083 35.1964C42.0333 35.1429 42.0333 35.0982 42.0333 35.0714ZM42.3 23.9375H42.1833L42.05 24.25L41.9167 23.9375H41.8V24.4196H41.8667V24.0536L42 24.3661H42.0917L42.2083 24.0536V24.4196H42.3V23.9375ZM42.6667 16.75C42.6667 9.94643 37.4917 4.40179 31.125 4.40179C28.8583 4.40179 26.6333 5.13393 24.75 6.46429C30.7583 11.7589 30.85 21.7768 24.75 27.0446C26.6333 28.3839 28.875 29.1071 31.125 29.1071C37.4917 29.1161 42.6667 23.5804 42.6667 16.75Z" fill="black"/>
</g>
</svg>
