<svg width="41" height="39" viewBox="0 0 41 39" fill="none" xmlns="http://www.w3.org/2000/svg">
<g id="&#240;&#159;&#166;&#134; icon &#34;Facebook Square&#34;">
<path id="Vector" d="M36.0743 0H4.58034C3.44133 0 2.34897 0.434419 1.54357 1.20769C0.738174 1.98096 0.285706 3.02974 0.285706 4.12331L0.285706 34.3609C0.285706 35.4545 0.738174 36.5033 1.54357 37.2766C2.34897 38.0498 3.44133 38.4842 4.58034 38.4842H16.8603V25.4005H11.2236V19.2421H16.8603V14.5484C16.8603 9.20959 20.1707 6.26056 25.2411 6.26056C27.6693 6.26056 30.2085 6.67633 30.2085 6.67633V11.9164H27.4108C24.6542 11.9164 23.7943 13.5588 23.7943 15.2434V19.2421H29.9482L28.964 25.4005H23.7943V38.4842H36.0743C37.2133 38.4842 38.3057 38.0498 39.1111 37.2766C39.9165 36.5033 40.3689 35.4545 40.3689 34.3609V4.12331C40.3689 3.02974 39.9165 1.98096 39.1111 1.20769C38.3057 0.434419 37.2133 0 36.0743 0Z" fill="black"/>
</g>
</svg>
