<svg width="41" height="39" viewBox="0 0 41 39" fill="none" xmlns="http://www.w3.org/2000/svg">
<g id="&#240;&#159;&#166;&#134; icon &#34;What&#39;s App&#34;">
<path id="Vector" d="M34.5859 5.59224C30.8371 1.98434 25.8445 0 20.5389 0C9.58758 0 0.676221 8.55587 0.676221 19.0703C0.676221 22.4291 1.58883 25.7106 3.32458 28.6055L0.506226 38.4842L11.037 35.8299C13.9359 37.3503 17.2016 38.1492 20.5299 38.1492H20.5389C31.4812 38.1492 40.5894 29.5934 40.5894 19.0789C40.5894 13.9849 38.3348 9.20014 34.5859 5.59224ZM20.5389 34.9365C17.5684 34.9365 14.6606 34.1719 12.1286 32.7288L11.5291 32.3852L5.284 33.9572L6.94817 28.1072L6.5545 27.5059C4.89927 24.9804 4.0314 22.0683 4.0314 19.0703C4.0314 10.3341 11.4396 3.22134 20.5478 3.22134C24.9588 3.22134 29.1013 4.87066 32.2149 7.86865C35.3285 10.8666 37.2432 14.8439 37.2343 19.0789C37.2343 27.8238 29.6381 34.9365 20.5389 34.9365ZM29.5934 23.0648C29.1013 22.8242 26.6587 21.6732 26.2024 21.5185C25.7461 21.3553 25.4151 21.278 25.084 21.7591C24.753 22.2401 23.8046 23.3053 23.5093 23.6317C23.223 23.9496 22.9278 23.9925 22.4357 23.752C19.5189 22.3518 17.6042 21.2522 15.6806 18.0824C15.1706 17.2406 16.1906 17.3007 17.139 15.4796C17.3 15.1618 17.2195 14.8869 17.0942 14.6463C16.969 14.4058 15.9758 12.0607 15.5643 11.1072C15.1617 10.1794 14.7501 10.3083 14.4459 10.2911C14.1596 10.2739 13.8285 10.2739 13.4975 10.2739C13.1664 10.2739 12.6296 10.3942 12.1733 10.8666C11.717 11.3477 10.4376 12.4988 10.4376 14.8439C10.4376 17.1891 12.218 19.4569 12.4596 19.7747C12.7101 20.0926 15.9579 24.9031 20.9415 26.9733C24.0909 28.279 25.3256 28.3907 26.9003 28.1674C27.8577 28.0299 29.835 27.0163 30.2465 25.8996C30.6581 24.7828 30.6581 23.8293 30.5329 23.6317C30.4165 23.417 30.0855 23.2967 29.5934 23.0648Z" fill="black"/>
</g>
</svg>
